<svg width="149" height="61" viewBox="0 0 149 61" fill="none" xmlns="http://www.w3.org/2000/svg">
<path d="M143.38 20.3366C139.631 16.1044 134.751 13.9883 128.711 13.9883C124.802 13.9883 121.302 14.9619 118.212 16.8992C115.122 18.8464 112.732 21.5586 111.043 25.0458C109.353 28.5428 108.503 32.4671 108.503 36.8186V37.822C108.503 44.8062 110.383 50.4194 114.142 54.6516C117.902 58.8839 122.782 61 128.791 61C132.731 61 136.241 60.0463 139.311 58.1487C142.38 56.2511 144.77 53.5489 146.46 50.0419C148.15 46.5349 149 42.5907 149 38.1995V37.1564C149 30.1722 147.13 24.5689 143.38 20.3267V20.3366ZM144.01 37.7922C144.01 43.4948 142.61 48.0847 139.801 51.5619C136.991 55.0391 133.321 56.7777 128.801 56.7777C124.282 56.7777 120.562 55.0391 117.762 51.5619C114.952 48.0847 113.552 43.6339 113.552 38.2194V37.2954C113.552 31.6226 114.962 27.0327 117.782 23.5257C120.602 20.0187 124.252 18.2702 128.721 18.2702C131.711 18.2702 134.361 19.055 136.681 20.6347C139.001 22.2143 140.801 24.4397 142.09 27.3208C143.38 30.202 144.02 33.3712 144.02 36.8384V37.8021L144.01 37.7922ZM27.8481 30.8477C29.868 29.7251 30.6179 28.3541 30.6179 25.7909V14.3459H25.8683V26.9533L25.7483 27.0129L4.83968 38.736V0H0V61H4.83968V43.7928L13.3691 39.0241L13.4891 39.1831L27.3482 61H32.7978L17.2188 36.8484L27.8481 30.8378V30.8477ZM99.9833 56.6485C97.8634 56.6485 96.3435 56.0326 95.4336 54.8007C94.5237 53.5687 94.0737 51.701 94.0737 49.1775V18.449H103.463V14.3459H94.0737V2.95065H89.044V14.3459H80.7046V18.449H89.044V49.1775C89.044 53.0621 89.824 56.0028 91.3939 57.9997C92.9638 59.9966 95.4636 61 98.8934 61C101.153 61 102.943 60.7616 104.253 60.2946L104.043 56.2213C102.173 56.4995 100.813 56.6386 99.9733 56.6386L99.9833 56.6485ZM57.3562 13.9883C53.4464 13.9883 49.9467 14.9619 46.8569 16.8992C43.7671 18.8464 41.3772 21.5586 39.6873 25.0458C37.9975 28.5428 37.1475 32.4671 37.1475 36.8186V37.822C37.1475 44.8062 39.0274 50.4194 42.7871 54.6516C46.5469 58.8839 51.4265 61 57.4361 61C61.3759 61 64.8856 60.0463 67.9554 58.1487C71.0252 56.2511 73.4151 53.5489 75.105 50.0419C76.7949 46.5349 77.6448 42.5907 77.6448 38.1995V37.1564C77.6448 30.1722 75.7749 24.5689 72.0252 20.3267C68.2754 16.0945 63.3957 13.9783 57.3562 13.9783V13.9883ZM72.6551 37.7922C72.6551 43.4948 71.2552 48.0847 68.4454 51.5619C65.6356 55.0391 61.9658 56.7777 57.4461 56.7777C52.9265 56.7777 49.2067 55.0391 46.4069 51.5619C43.5971 48.0847 42.1972 43.6339 42.1972 38.2194V37.2954C42.1972 31.6226 43.6071 27.0327 46.4269 23.5257C49.2467 20.0187 52.8965 18.2702 57.3662 18.2702C60.356 18.2702 63.0058 19.055 65.3256 20.6347C67.6455 22.2143 69.4453 24.4397 70.7353 27.3208C72.0252 30.202 72.6651 33.3712 72.6651 36.8384V37.8021L72.6551 37.7922Z" fill="#231F20"/>
</svg>
