<?xml version="1.0" encoding="UTF-8"?><svg id="a" xmlns="http://www.w3.org/2000/svg" viewBox="0 0 149.01 62.69"><defs><style>.b{fill:#231f20;}</style></defs><path class="b" d="M143.39,21.76c-3.75-4.26-8.63-6.39-14.67-6.39-3.91,0-7.41,.98-10.5,2.93-3.09,1.96-5.48,4.69-7.17,8.2-1.69,3.52-2.54,7.47-2.54,11.85v1.01c0,7.03,1.88,12.68,5.64,16.94,3.76,4.26,8.64,6.39,14.65,6.39,3.94,0,7.45-.96,10.52-2.87,3.07-1.91,5.46-4.63,7.15-8.16,1.69-3.53,2.54-7.5,2.54-11.92v-1.05c0-7.03-1.87-12.67-5.62-16.94Zm.63,17.57c0,5.74-1.4,10.36-4.21,13.86-2.81,3.5-6.48,5.25-11,5.25s-8.24-1.75-11.04-5.25c-2.81-3.5-4.21-7.98-4.21-13.43v-.93c0-5.71,1.41-10.33,4.23-13.86,2.82-3.53,6.47-5.29,10.94-5.29,2.99,0,5.64,.79,7.96,2.38,2.32,1.59,4.12,3.83,5.41,6.73s1.93,6.09,1.93,9.58v.97ZM27.85,31.05c2.02-1.13,2.77-2.51,2.77-5.09v-7.99h-4.75v9.16l-.12,.06L4.84,38.99V0H0V61.4H4.84v-17.32l8.53-4.8,.12,.16,13.86,21.96h5.45l-15.58-24.31,10.63-6.05Zm72.14,27.26c-2.12,0-3.64-.62-4.55-1.86-.91-1.24-1.36-3.12-1.36-5.66V20.34h9.39v-4.13h-9.39V4.53h-5.03v11.68h-8.34v4.13h8.34v30.45c0,3.91,.78,6.87,2.35,8.88s4.07,3.02,7.5,3.02c2.26,0,4.05-.24,5.36-.71l-.21-4.1c-1.87,.28-3.23,.42-4.07,.42ZM57.36,15.37c-3.91,0-7.41,.98-10.5,2.93-3.09,1.96-5.48,4.69-7.17,8.2-1.69,3.52-2.54,7.47-2.54,11.85v1.01c0,7.03,1.88,12.68,5.64,16.94,3.76,4.26,8.64,6.39,14.65,6.39,3.94,0,7.45-.96,10.52-2.87,3.07-1.91,5.46-4.63,7.15-8.16,1.69-3.53,2.54-7.5,2.54-11.92v-1.05c0-7.03-1.87-12.67-5.62-16.94-3.75-4.26-8.63-6.39-14.67-6.39Zm15.3,23.96c0,5.74-1.4,10.36-4.21,13.86-2.81,3.5-6.48,5.25-11,5.25s-8.24-1.75-11.04-5.25c-2.81-3.5-4.21-7.98-4.21-13.43v-.93c0-5.71,1.41-10.33,4.23-13.86,2.82-3.53,6.47-5.29,10.94-5.29,2.99,0,5.64,.79,7.96,2.38,2.32,1.59,4.12,3.83,5.41,6.73s1.93,6.09,1.93,9.58v.97Z"/></svg>