<svg width="150" height="62" viewBox="0 0 150 62" fill="none" xmlns="http://www.w3.org/2000/svg">
<g clip-path="url(#clip0_106_21)">
<path d="M143.39 20.47C139.64 16.21 134.76 14.08 128.72 14.08C124.81 14.08 121.31 15.06 118.22 17.01C115.13 18.97 112.74 21.7 111.05 25.21C109.36 28.73 108.51 32.68 108.51 37.06V38.07C108.51 45.1 110.39 50.75 114.15 55.01C117.91 59.27 122.79 61.4 128.8 61.4C132.74 61.4 136.25 60.44 139.32 58.53C142.39 56.62 144.78 53.9 146.47 50.37C148.16 46.84 149.01 42.87 149.01 38.45V37.4C149.01 30.37 147.14 24.73 143.39 20.46V20.47ZM144.02 38.04C144.02 43.78 142.62 48.4 139.81 51.9C137 55.4 133.33 57.15 128.81 57.15C124.29 57.15 120.57 55.4 117.77 51.9C114.96 48.4 113.56 43.92 113.56 38.47V37.54C113.56 31.83 114.97 27.21 117.79 23.68C120.61 20.15 124.26 18.39 128.73 18.39C131.72 18.39 134.37 19.18 136.69 20.77C139.01 22.36 140.81 24.6 142.1 27.5C143.39 30.4 144.03 33.59 144.03 37.08V38.05L144.02 38.04ZM27.85 31.05C29.87 29.92 30.62 28.54 30.62 25.96V14.44H25.87V27.13L25.75 27.19L4.84 38.99V0H0V61.4H4.84V44.08L13.37 39.28L13.49 39.44L27.35 61.4H32.8L17.22 37.09L27.85 31.04V31.05ZM99.99 57.02C97.87 57.02 96.35 56.4 95.44 55.16C94.53 53.92 94.08 52.04 94.08 49.5V18.57H103.47V14.44H94.08V2.97H89.05V14.44H80.71V18.57H89.05V49.5C89.05 53.41 89.83 56.37 91.4 58.38C92.97 60.39 95.47 61.4 98.9 61.4C101.16 61.4 102.95 61.16 104.26 60.69L104.05 56.59C102.18 56.87 100.82 57.01 99.98 57.01L99.99 57.02ZM57.36 14.08C53.45 14.08 49.95 15.06 46.86 17.01C43.77 18.97 41.38 21.7 39.69 25.21C38 28.73 37.15 32.68 37.15 37.06V38.07C37.15 45.1 39.03 50.75 42.79 55.01C46.55 59.27 51.43 61.4 57.44 61.4C61.38 61.4 64.89 60.44 67.96 58.53C71.03 56.62 73.42 53.9 75.11 50.37C76.8 46.84 77.65 42.87 77.65 38.45V37.4C77.65 30.37 75.78 24.73 72.03 20.46C68.28 16.2 63.4 14.07 57.36 14.07V14.08ZM72.66 38.04C72.66 43.78 71.26 48.4 68.45 51.9C65.64 55.4 61.97 57.15 57.45 57.15C52.93 57.15 49.21 55.4 46.41 51.9C43.6 48.4 42.2 43.92 42.2 38.47V37.54C42.2 31.83 43.61 27.21 46.43 23.68C49.25 20.15 52.9 18.39 57.37 18.39C60.36 18.39 63.01 19.18 65.33 20.77C67.65 22.36 69.45 24.6 70.74 27.5C72.03 30.4 72.67 33.59 72.67 37.08V38.05L72.66 38.04Z" fill="#231F20"/>
</g>
<defs>
<clipPath id="clip0_106_21">
<rect width="149.01" height="61.4" fill="white"/>
</clipPath>
</defs>
</svg>
